<?xml version="1.0" encoding="UTF-8" standalone="no"?>
<!DOCTYPE svg PUBLIC "-//W3C//DTD SVG 1.1//EN" "http://www.w3.org/Graphics/SVG/1.1/DTD/svg11.dtd">
<!-- Generated by graphviz version 2.44.1 (20201121.0304)
 -->
<!-- Title: G Pages: 1 -->
<svg xmlns="http://www.w3.org/2000/svg" xmlns:xlink="http://www.w3.org/1999/xlink" width="321pt" height="286pt" viewBox="0.00 0.00 321.00 286.00"><script>
(function() {
  var enablePanZoom = false;
  var enablePanZoomControls = false;
  var panZoomScriptUrl = "https://graphviz.corp.google.com/svg-pan-zoom.js";

  var isEmbedded = true;
  try {
    // This condition is true when the SVG is being displayed in a
    // top-level browser window. If the parent location's href is
    // different, or we can't access it (due to security constraints
    // on accessing javascript properties on a different domain),
    // then the document is embedded.
    if (window.location.href == window.parent.location.href) {
      isEmbedded = false;
    }
  } catch (e) {}

  if (!isEmbedded) enablePanZoom = true;

  if (enablePanZoom &amp;&amp; typeof svgPanZoom === 'undefined') {
    var panZoomScript =
      document.createElementNS('http://www.w3.org/2000/svg', 'script');
    panZoomScript.setAttributeNS(
      'http://www.w3.org/1999/xlink', 'xlink:href', panZoomScriptUrl);
    document.currentScript.parentElement.appendChild(panZoomScript);
  }

  window.onload = function() {
    var svg = document.getElementsByTagName("svg")[0];

    if (!isEmbedded) {
      svg.removeAttribute("width");
      svg.removeAttribute("height");
    }

    if (enablePanZoom) {
      var altPressed = false;
      svgPanZoom(svg, {
        minZoom: 0.2,
        maxZoom: 100,
        controlIconsEnabled: enablePanZoomControls,
        preventMouseEventsDefault: isEmbedded,
        beforeZoom: function(oldZoom, newZoom) { return !altPressed; },
        beforePan: function(oldPan, newPan) { return !altPressed; },
      });
      document.onkeydown = function(e) {
        altPressed = e.altKey;
      };
      document.onkeyup = function(e) {
        altPressed = e.altKey;
      };
    }

    var links = document.getElementsByTagName("a");
    for (var i = 0; i &lt; links.length; i++) {
      if (!links[i].getAttribute("target")) {
        links[i].setAttribute("target", "_top");
      }
    }
  };
})();
</script>
<g id="graph0" class="graph" transform="scale(1 1) rotate(0) translate(4 282)">
<title>G</title>
<polygon fill="white" stroke="none" points="-4,4 -4,-282 317,-282 317,4 -4,4"/>
<g id="clust1" class="cluster">
<title>cluster_SAG</title>
<polygon fill="#d9ead3" stroke="black" points="0,-62 0,-226 160,-226 160,-62 0,-62"/>
<text text-anchor="middle" x="80" y="-208.7" font-family="Times,serif" font-size="14.00">System Activity Governor</text>
</g>
<g id="clust2" class="cluster">
<title>cluster_ExecutionState</title>
<polygon fill="#fff2cc" stroke="black" points="29,-70 29,-192 130,-192 130,-70 29,-70"/>
<text text-anchor="middle" x="79.5" y="-174.7" font-family="Times,serif" font-size="14.00">Execution State</text>
</g>
<g id="clust3" class="cluster">
<title>cluster_Deps</title>
</g>
<g id="clust4" class="cluster">
<title>cluster_Storage</title>
<polygon fill="#d9ead3" stroke="black" points="181,-18 181,-260 303,-260 303,-18 181,-18"/>
<text text-anchor="middle" x="242" y="-242.7" font-family="Times,serif" font-size="14.00">Storage</text>
</g>
<g id="clust5" class="cluster">
<title>cluster_Power</title>
<polygon fill="#fff2cc" stroke="black" points="207,-26 207,-122 277,-122 277,-26 207,-26"/>
<text text-anchor="middle" x="242" y="-104.7" font-family="Times,serif" font-size="14.00">Power</text>
</g>
<g id="clust6" class="cluster">
<title>cluster_Storage</title>
<polygon fill="#fff2cc" stroke="black" points="189,-130 189,-226 295,-226 295,-130 189,-130"/>
<text text-anchor="middle" x="242" y="-208.7" font-family="Times,serif" font-size="14.00">Waking Request</text>
</g>
<!-- ExecutionState -->
<g id="node1" class="node">
<title>ExecutionState</title>
<polygon fill="#f3f3f3" stroke="black" points="40,-79 40,-157 119,-157 119,-79 40,-79"/>
<text text-anchor="middle" x="79.5" y="-139.7" font-family="Times,serif" font-size="14.00">Active</text>
<polyline fill="none" stroke="black" points="40,-131 119,-131"/>
<text text-anchor="middle" x="79.5" y="-113.7" font-family="Times,serif" font-size="14.00">Suspending</text>
<polyline fill="none" stroke="black" points="40,-105 119,-105"/>
<text text-anchor="middle" x="79.5" y="-87.7" font-family="Times,serif" font-size="14.00">Inactive</text>
</g>
<!-- StoragePower -->
<g id="node2" class="node">
<title>StoragePower</title>
<polygon fill="#f3f3f3" stroke="black" points="215,-35 215,-87 269,-87 269,-35 215,-35"/>
<text text-anchor="middle" x="242" y="-69.7" font-family="Times,serif" font-size="14.00">On</text>
<polyline fill="none" stroke="black" points="215,-61 269,-61"/>
<text text-anchor="middle" x="242" y="-43.7" font-family="Times,serif" font-size="14.00">Off</text>
</g>
<!-- ExecutionState&#45;&gt;StoragePower -->
<!-- StorageWakingRequest -->
<g id="node3" class="node">
<title>StorageWakingRequest</title>
<polygon fill="#f3f3f3" stroke="black" points="215,-139 215,-191 269,-191 269,-139 215,-139"/>
<text text-anchor="middle" x="242" y="-173.7" font-family="Times,serif" font-size="14.00">On</text>
<polyline fill="none" stroke="black" points="215,-165 269,-165"/>
<text text-anchor="middle" x="242" y="-147.7" font-family="Times,serif" font-size="14.00">Off</text>
</g>
<!-- ExecutionState&#45;&gt;StorageWakingRequest -->
<!-- StoragePower&#45;&gt;ExecutionState -->
<g id="edge4" class="edge">
<title>StoragePower:w-&gt;ExecutionState:e</title>
<path fill="none" stroke="black" stroke-dasharray="5,2" d="M214,-74C172.02,-74 166.8,-110.45 131.42,-117"/>
<polygon fill="black" stroke="black" points="131.16,-113.51 121.51,-117.87 131.78,-120.48 131.16,-113.51"/>
</g>
<!-- StorageWakingRequest&#45;&gt;ExecutionState -->
<g id="edge3" class="edge">
<title>StorageWakingRequest:w-&gt;ExecutionState:e</title>
<path fill="none" stroke="black" d="M214,-178C168.5,-178 169.09,-127.44 131.15,-119.15"/>
<polygon fill="black" stroke="black" points="131.81,-115.69 121.51,-118.15 131.1,-122.66 131.81,-115.69"/>
</g>
</g>
</svg>
