<?xml version="1.0" encoding="UTF-8" standalone="no"?>
<!DOCTYPE svg PUBLIC "-//W3C//DTD SVG 1.1//EN" "http://www.w3.org/Graphics/SVG/1.1/DTD/svg11.dtd">
<!-- Generated by graphviz version 2.44.1 (20201121.0304)
 -->
<!-- Title: G Pages: 1 -->
<svg xmlns="http://www.w3.org/2000/svg" xmlns:xlink="http://www.w3.org/1999/xlink" width="387pt" height="188pt" viewBox="0.00 0.00 387.25 188.00"><script>
(function() {
  var enablePanZoom = false;
  var enablePanZoomControls = false;
  var panZoomScriptUrl = "https://graphviz.corp.google.com/svg-pan-zoom.js";

  var isEmbedded = true;
  try {
    // This condition is true when the SVG is being displayed in a
    // top-level browser window. If the parent location's href is
    // different, or we can't access it (due to security constraints
    // on accessing javascript properties on a different domain),
    // then the document is embedded.
    if (window.location.href == window.parent.location.href) {
      isEmbedded = false;
    }
  } catch (e) {}

  if (!isEmbedded) enablePanZoom = true;

  if (enablePanZoom &amp;&amp; typeof svgPanZoom === 'undefined') {
    var panZoomScript =
      document.createElementNS('http://www.w3.org/2000/svg', 'script');
    panZoomScript.setAttributeNS(
      'http://www.w3.org/1999/xlink', 'xlink:href', panZoomScriptUrl);
    document.currentScript.parentElement.appendChild(panZoomScript);
  }

  window.onload = function() {
    var svg = document.getElementsByTagName("svg")[0];

    if (!isEmbedded) {
      svg.removeAttribute("width");
      svg.removeAttribute("height");
    }

    if (enablePanZoom) {
      var altPressed = false;
      svgPanZoom(svg, {
        minZoom: 0.2,
        maxZoom: 100,
        controlIconsEnabled: enablePanZoomControls,
        preventMouseEventsDefault: isEmbedded,
        beforeZoom: function(oldZoom, newZoom) { return !altPressed; },
        beforePan: function(oldPan, newPan) { return !altPressed; },
      });
      document.onkeydown = function(e) {
        altPressed = e.altKey;
      };
      document.onkeyup = function(e) {
        altPressed = e.altKey;
      };
    }

    var links = document.getElementsByTagName("a");
    for (var i = 0; i &lt; links.length; i++) {
      if (!links[i].getAttribute("target")) {
        links[i].setAttribute("target", "_top");
      }
    }
  };
})();
</script>
<g id="graph0" class="graph" transform="scale(1 1) rotate(0) translate(4 184)">
<title>G</title>
<polygon fill="white" stroke="none" points="-4,4 -4,-184 383.25,-184 383.25,4 -4,4"/>
<g id="clust1" class="cluster">
<title>cluster_SAG</title>
<polygon fill="#d9ead3" stroke="black" points="107.5,-8 107.5,-172 371.25,-172 371.25,-8 107.5,-8"/>
<text text-anchor="middle" x="239.38" y="-154.7" font-family="Times,serif" font-size="14.00">          System Activity Governor</text>
</g>
<g id="clust2" class="cluster">
<title>cluster_ExecutionState</title>
<polygon fill="#fff2cc" stroke="black" points="245,-16 245,-138 363.25,-138 363.25,-16 245,-16"/>
<text text-anchor="middle" x="304.12" y="-120.7" font-family="Times,serif" font-size="14.00">Execution State</text>
</g>
<g id="clust3" class="cluster">
<title>cluster_WakeHandling</title>
<polygon fill="#fff2cc" stroke="black" points="115.5,-42 115.5,-138 217,-138 217,-42 115.5,-42"/>
<text text-anchor="middle" x="166.25" y="-120.7" font-family="Times,serif" font-size="14.00">Wake Handling</text>
</g>
<g id="clust4" class="cluster">
<title>cluster_RealtimeClock</title>
<polygon fill="#d9ead3" stroke="black" points="8,-34 8,-172 99.5,-172 99.5,-34 8,-34"/>
<text text-anchor="middle" x="53.75" y="-154.7" font-family="Times,serif" font-size="14.00">RTC Driver</text>
</g>
<g id="clust5" class="cluster">
<title>cluster_Timeout</title>
<polygon fill="#fff2cc" stroke="black" points="16,-42 16,-138 91.5,-138 91.5,-42 16,-42"/>
<text text-anchor="middle" x="53.75" y="-120.7" font-family="Times,serif" font-size="14.00">Timeout</text>
</g>
<!-- ExecutionState -->
<g id="node1" class="node">
<title>ExecutionState</title>
<polygon fill="#f3f3f3" stroke="black" points="253,-25 253,-103 355.25,-103 355.25,-25 253,-25"/>
<text text-anchor="middle" x="304.12" y="-85.7" font-family="Times,serif" font-size="14.00">Active</text>
<polyline fill="none" stroke="black" points="253,-77 355.25,-77"/>
<text text-anchor="middle" x="304.12" y="-59.7" font-family="Times,serif" font-size="14.00">Wake Handling</text>
<polyline fill="none" stroke="black" points="253,-51 355.25,-51"/>
<text text-anchor="middle" x="304.12" y="-33.7" font-family="Times,serif" font-size="14.00">Inactive</text>
</g>
<!-- WakeHandling -->
<g id="node2" class="node">
<title>WakeHandling</title>
<polygon fill="#f3f3f3" stroke="black" points="136.5,-51 136.5,-103 196,-103 196,-51 136.5,-51"/>
<text text-anchor="middle" x="166.25" y="-85.7" font-family="Times,serif" font-size="14.00">Active</text>
<polyline fill="none" stroke="black" points="136.5,-77 196,-77"/>
<text text-anchor="middle" x="166.25" y="-59.7" font-family="Times,serif" font-size="14.00">Inactive</text>
</g>
<!-- WakeHandling&#45;&gt;ExecutionState -->
<g id="edge1" class="edge">
<title>WakeHandling:Active-&gt;ExecutionState:Active</title>
<path fill="none" stroke="black" d="M197,-90C217.24,-90 224.91,-90 240.83,-90"/>
<polygon fill="black" stroke="black" points="240.49,-93.5 250.49,-90 240.49,-86.5 240.49,-93.5"/>
</g>
<!-- Timeout -->
<g id="node3" class="node">
<title>Timeout</title>
<polygon fill="#f3f3f3" stroke="black" points="24,-51 24,-103 83.5,-103 83.5,-51 24,-51"/>
<text text-anchor="middle" x="53.75" y="-85.7" font-family="Times,serif" font-size="14.00">Active</text>
<polyline fill="none" stroke="black" points="24,-77 83.5,-77"/>
<text text-anchor="middle" x="53.75" y="-59.7" font-family="Times,serif" font-size="14.00">Inactive</text>
</g>
<!-- Timeout&#45;&gt;WakeHandling -->
<g id="edge2" class="edge">
<title>Timeout:Active-&gt;WakeHandling:Active</title>
<path fill="none" stroke="black" d="M84.5,-90C102.92,-90 110.11,-90 124.32,-90"/>
<polygon fill="black" stroke="black" points="123.99,-93.5 133.99,-90 123.99,-86.5 123.99,-93.5"/>
</g>
</g>
</svg>
